<?xml version="1.0" encoding="UTF-8"?>
<svg viewBox="0 0 388.94202 390.87262" xmlns="http://www.w3.org/2000/svg">
 <defs>
  <linearGradient id="c" x2="0" y1="499.97" y2="583.12" gradientUnits="userSpaceOnUse">
   <stop stop-color="#fff" stop-opacity=".39216" offset="0"/>
   <stop stop-color="#fff" stop-opacity="0" offset="1"/>
  </linearGradient>
  <linearGradient id="b" x2="0" y1="678.66" y2="487.66" gradientUnits="userSpaceOnUse">
   <stop stop-color="#6a8fc6" offset="0"/>
   <stop stop-color="#97b9ec" offset="1"/>
  </linearGradient>
  <linearGradient id="a" x2="0" y1="680.23" y2="335.99" gradientUnits="userSpaceOnUse">
   <stop stop-color="#c9c9c9" offset="0"/>
   <stop stop-color="#fff" offset="1"/>
  </linearGradient>
 </defs>
 <g transform="translate(-174.44 -290.74)">
  <path d="m520.46 487.66-151.55-151.66-151.55 151.66v179.82c0 1.7449 0.36572 3.4048 1.0058 4.9174s1.5379 2.879 2.6822 4.0234 2.5108 2.0421 4.0234 2.6822 3.1725 1.0058 4.9174 1.0058h277.83c1.7449 0 3.4049-0.36571 4.9174-1.0058s2.879-1.5379 4.0233-2.6822 2.0421-2.5108 2.6822-4.0234 1.0058-3.1725 1.0058-4.9174v-179.82z" fill="url(#a)"/>
  <path d="m527.61 441.84-145.4-145.62c-1.7906-1.7898-3.9583-3.2036-6.2585-4.1351s-4.733-1.3806-7.2644-1.3411c-2.4346 0.03462-4.839 0.52278-7.0408 1.4529s-4.201 2.3021-5.9232 4.0234l-145.51 145.62v52.974l158.7-158.81 158.7 158.81v-52.974z" fill="#f2f2f2"/>
  <path d="m520.46 434.69-138.25-138.47c-1.7906-1.7898-3.9583-3.2036-6.2585-4.1351s-4.733-1.3806-7.2644-1.3411c-2.4346 0.03462-4.839 0.52278-7.0408 1.4529s-4.201 2.3021-5.9232 4.0234l-138.36 138.47v52.974l151.55-151.66 151.55 151.66v-52.974z" fill="#b3b3b3"/>
  <path d="m229.98 315.98c-1.7449 0-3.3776 0.39301-4.8901 1.0331s-2.8849 1.5074-4.0292 2.6517-2.046 2.5166-2.6861 4.0292-0.99868 3.1797-0.99868 4.9246v159.03l67.05-67.119v-91.914c0-1.7449-0.35858-3.412-0.99869-4.9246s-1.5418-2.8849-2.6861-4.0292-2.5166-2.0116-4.0292-2.6517-3.1797-1.0331-4.9246-1.0331h-41.807z" fill="#a00"/>
  <path d="m368.69 290.74c-4.8692 0.06928-9.5197 2.0337-12.964 5.4762l-175.8 175.91c-7.3142 7.3142-7.3142 19.173 0 26.487s19.173 7.3142 26.487 0l162.5-162.61 162.5 162.61c7.3142 7.3142 19.173 7.3142 26.487 0s7.3142-19.173 0-26.487l-175.69-175.91c-3.5813-3.5795-8.4601-5.5552-13.523-5.4762z" fill="#4c4c4c"/>
  <path d="m441.78 680.11h-145.73v-179.82c0-1.7449 0.36572-3.4049 1.0058-4.9174s1.5379-2.879 2.6822-4.0233 2.5108-2.0421 4.0234-2.6822 3.1725-1.0058 4.9174-1.0058h120.48c1.7449 0 3.4048 0.36571 4.9174 1.0058s2.879 1.5379 4.0234 2.6822 2.0421 2.5108 2.6822 4.0233 1.0058 3.1725 1.0058 4.9174v179.82z" fill="url(#b)"/>
  <path d="m319.69 498.68c-1.7449 0-3.412 0.35856-4.9246 0.99869s-2.8849 1.5418-4.0292 2.6861-2.0116 2.5166-2.6517 4.0292-1.0331 3.1797-1.0331 4.9246v69.633h0.30994c2.8994 11.008 29.338-24.451 61.54-24.451s58.675 35.458 61.574 24.451h0.2755v-69.633c0-1.7449-0.35856-3.412-0.99868-4.9246s-1.5418-2.8849-2.6861-4.0292-2.5166-2.046-4.0292-2.6861-3.1797-0.99868-4.9246-0.99869h-98.422z" fill="url(#c)"/>
  <path transform="matrix(1.102 0 0 1.102 -29.723 -42.136)" d="m417.86 568.08a14.286 14.286 0 1 1 -28.571 0 14.286 14.286 0 1 1 28.571 0z" fill="#4c4c4c"/>
  <path d="m415.02 572.47c-6.3003 0-11.433 5.0985-11.433 11.399 0 4.2875 2.4935 7.8985 5.9921 9.8491-0.19661-0.35359-0.52991-0.62335-0.68875-0.99869-0.57782-1.3654-0.89538-2.8674-0.89538-4.4424s0.31756-3.0771 0.89538-4.4424 1.4466-2.583 2.4795-3.6159 2.2506-1.8672 3.6159-2.4451 2.8674-0.89538 4.4424-0.89538 3.0771 0.31757 4.4424 0.89538c0.37343 0.15803 0.6468 0.45891 0.99869 0.65431-1.948-3.508-5.5547-5.9577-9.8491-5.9577z" fill="#e6e6e6" opacity=".5"/>
 </g>
</svg>
