<?xml version="1.0" encoding="UTF-8"?>
<svg viewBox="0 0 128 128" xmlns="http://www.w3.org/2000/svg">
 <defs>
  <linearGradient id="a" x1="46.376" x2="231.16" y1="698.03" y2="513.24" gradientUnits="userSpaceOnUse">
   <stop stop-color="#b3b3b3" offset="0"/>
   <stop stop-color="#b3b3b3" stop-opacity="0" offset="1"/>
  </linearGradient>
 </defs>
 <g transform="translate(-46.783 -570.69)">
  <path d="m64.814 570.79h91.938a18.031 16.263 0 0 1 18.031 16.263v95.473a18.031 16.263 0 0 1 -18.031 16.263h-91.938a18.031 16.263 0 0 1 -18.031 -16.263v-95.473a18.031 16.263 0 0 1 18.031 -16.263" fill="url(#a)"/>
  <g transform="matrix(.36867 0 0 .36867 7.7552 456.72)" fill="#006680">
   <path d="m374.94 485.16zl-95.449-84.53-95.504 84.567v120.84c0 3.1208 2.5218 5.6243 5.6427 5.6243h59.688v-52.982c0-3.1208 2.5035-5.6427 5.6243-5.6427h49.044c3.1208 0 5.6243 2.5218 5.6243 5.6427v52.982h59.706c3.1208 0 5.6244-2.5035 5.6244-5.6243v-120.88zm-190.95 0.0366z"/>
   <path d="m278.93 354.37-135.45 119.94 14.268 16.097 121.74-107.8 121.71 107.8 14.241-16.097-135.42-119.94-0.5264 0.60952-0.55411-0.60952z"/>
   <path d="m183.98 371.63h34.338l-0.29922 20.338-34.038 30.75v-51.088z"/>
  </g>
 </g>
</svg>
